<svg width="91" height="25" viewBox="0 0 91 25" fill="none" xmlns="http://www.w3.org/2000/svg">
<g clip-path="url(#clip0_7_8092)">
<path d="M12.009 24C18.631 24 23.999 18.627 23.999 12C23.999 5.373 18.632 0 12.01 0C5.38801 0 0.0190125 5.373 0.0190125 12C0.0190125 18.627 5.38701 24 12.009 24Z" fill="#DB001B"/>
<path d="M14.453 17.003C14.49 16.853 14.49 16.665 14.471 16.495C14.4524 16.3122 14.4016 16.1341 14.321 15.969C14.2823 15.8809 14.2318 15.7985 14.171 15.724C14.0652 15.5805 13.9385 15.4538 13.795 15.348C13.5986 15.208 13.3751 15.1106 13.1388 15.062C12.9025 15.0135 12.6587 15.0148 12.423 15.066C12.273 15.103 12.123 15.16 11.991 15.235C11.9348 15.255 11.8836 15.2871 11.841 15.329C11.69 15.423 11.558 15.555 11.445 15.705C11.239 15.987 11.107 16.325 11.126 16.721C11.164 17.097 11.276 17.417 11.521 17.718C11.841 18.113 12.273 18.338 12.761 18.358H12.911C13.25 18.338 13.551 18.226 13.814 18.038C14.134 17.793 14.377 17.417 14.453 17.003V17.003ZM18.907 15.912C18.7751 15.796 18.6219 15.7067 18.456 15.649C18.1675 15.5446 17.8578 15.5124 17.554 15.555C17.5019 15.5561 17.4507 15.5688 17.404 15.592C17.121 15.686 16.858 15.893 16.708 16.157C16.5348 16.4587 16.4686 16.81 16.52 17.154C16.5512 17.3385 16.6188 17.515 16.7189 17.6731C16.819 17.8312 16.9496 17.9679 17.103 18.075C17.234 18.169 17.366 18.225 17.516 18.282C17.5626 18.3056 17.6138 18.3186 17.666 18.32C17.686 18.32 17.704 18.32 17.704 18.338C17.723 18.338 17.742 18.338 17.76 18.358H18.136C18.493 18.32 18.813 18.15 19.038 17.868C19.151 17.737 19.245 17.605 19.302 17.436C19.338 17.3387 19.3631 17.2378 19.377 17.135C19.4198 16.9076 19.3986 16.6728 19.3156 16.4568C19.2326 16.2408 19.0911 16.0522 18.907 15.912V15.912ZM1.917 12.94C4.078 12.922 4.36 14.972 4.229 15.818C4.022 15.931 3.815 16.119 3.646 16.345C3.627 16.495 3.721 16.665 3.834 16.815C3.909 16.796 3.984 16.796 4.06 16.777C4.229 16.74 4.417 16.683 4.586 16.627C4.962 16.533 5.394 16.439 5.77 16.533C5.977 16.589 6.164 16.664 6.334 16.759C6.916 17.003 7.367 17.605 7.574 18.094C7.63 18.207 7.687 18.301 7.744 18.414C7.818 18.564 7.837 18.696 7.856 18.827C7.931 18.865 8.044 18.847 8.063 18.827C8.119 18.79 8.157 18.752 8.175 18.489C8.232 17.812 7.555 15.291 5.3 15.592C5.413 14.351 5.319 12.997 4.285 12.056C3.477 11.304 1.823 10.626 0.019 11.567C0.019 11.737 0 11.906 0 12.075C0 12.733 0.056 13.373 0.15 13.994C0.639 13.316 1.297 12.94 1.917 12.94V12.94ZM9.322 16.627C9.754 17.078 9.698 15.95 9.717 15.066C9.735 14.295 9.886 13.091 9.961 12.677C10.149 11.661 10.731 11.342 11.502 11.229C13.212 10.965 15.092 11.191 16.502 10.777C16.652 10.74 16.689 10.646 16.576 10.57C16.201 10.345 15.411 10.175 15.073 10.12C13.4 9.79999 11.972 9.81799 10.073 9.96899C9.284 10.044 8.927 10.382 8.814 10.759C8.307 12.451 8.608 14.558 8.683 15.159C8.814 15.762 9.059 16.326 9.322 16.627V16.627ZM20.749 15.235C20.843 15.837 20.861 17.003 20.974 17.097C21.068 17.172 21.218 17.078 21.312 16.89C21.802 15.912 21.839 14.859 21.763 14.614C21.726 14.445 21.632 14.088 21.012 13.881C20.429 13.693 19.847 13.561 19.057 13.354C18.944 13.317 18.757 13.279 18.625 13.11C18.212 12.62 17.685 11.492 17.422 11.492C17.328 11.492 17.309 11.548 17.291 11.699C17.215 12.47 17.535 13.486 17.704 13.768C18.381 14.821 20.598 14.238 20.749 15.235V15.235Z" fill="white"/>
<path fill-rule="evenodd" clip-rule="evenodd" d="M52.542 4.20599C55.724 4.20599 57.608 6.27299 57.608 9.63799V13.278C57.608 16.35 56.017 18.8 52.542 18.8C51.17 18.8 50.128 18.032 49.506 17.3V25H46.27V4.35299H49.507V5.35799C50.275 4.68199 51.227 4.20599 52.543 4.20599H52.542ZM51.957 7.00399C50.384 7.00399 49.507 8.21099 49.488 9.58299V13.333C49.488 14.759 50.348 16.003 51.957 16.003C52.999 16.003 54.389 15.655 54.389 13.333V9.65499C54.407 7.97299 53.676 7.00299 51.957 7.00299V7.00399ZM66.112 4.20599H65.545C61.558 4.20599 60.113 6.74799 60.113 9.63799V13.387C60.113 16.331 61.613 18.782 65.545 18.782H66.094C70.044 18.782 71.525 16.332 71.525 13.387V9.63699C71.525 6.74799 70.08 4.20699 66.112 4.20699V4.20599ZM68.325 13.387C68.325 15.747 66.99 16.002 65.911 16.002H65.71C63.972 16.002 63.295 15.142 63.295 13.387V9.63699C63.295 7.35199 64.557 7.00399 65.71 7.00399H65.91C67.483 7.00399 68.325 7.73599 68.325 9.63799V13.387V13.387Z" fill="white"/>
<path d="M29.883 15.673C30.633 15.673 31.035 15.161 31.145 14.155C31.328 11.905 31.584 8.65 31.895 4.371H41.935V15.673H43.471V21.598H40.124V18.654H32.48V21.598H29.133V15.673H29.883V15.673ZM34.126 14.996C34.053 15.234 33.998 15.399 33.943 15.49L33.833 15.655H38.625V7.315H34.785C34.583 10.241 34.4 12.564 34.272 14.247C34.236 14.521 34.181 14.759 34.126 14.997V14.996ZM90.655 18.636H87.418V12.034L87.546 8.504L83.998 18.654H80.76L77.23 8.504L77.358 12.034V18.636H74.121V4.353H78.821L82.37 14.52L85.954 4.35201H90.636V18.635H90.655V18.636Z" fill="white"/>
</g>
<defs>
<clipPath id="clip0_7_8092">
<rect width="91" height="25" fill="white"/>
</clipPath>
</defs>
</svg>
